<?xml version="1.0" standalone="no"?>
<!DOCTYPE svg PUBLIC "-//W3C//DTD SVG 20010904//EN"
 "http://www.w3.org/TR/2001/REC-SVG-20010904/DTD/svg10.dtd">
<svg version="1.0" xmlns="http://www.w3.org/2000/svg"
 width="1000.000000pt" height="1000.000000pt" viewBox="0 0 1000.000000 1000.000000"
 preserveAspectRatio="xMidYMid meet">
<metadata>
Created by potrace 1.11, written by Peter Selinger 2001-2013
</metadata>
<g transform="translate(0.000000,1000.000000) scale(0.100000,-0.100000)"
fill="#000000" stroke="none">
<path d="M2444 9627 c-59 -28 -116 -91 -132 -146 -7 -23 -12 -114 -12 -234 l0
-195 -247 -4 c-236 -4 -251 -5 -314 -29 -97 -37 -153 -73 -220 -142 -74 -75
-132 -188 -148 -284 -9 -50 -11 -1063 -9 -3843 l3 -3775 26 -66 c38 -98 74
-154 142 -220 75 -74 188 -132 284 -148 50 -9 905 -11 3228 -9 l3160 3 66 26
c98 38 154 74 220 142 74 75 132 188 148 284 9 50 11 1063 9 3843 l-3 3775
-26 66 c-14 37 -38 88 -53 114 -41 69 -137 158 -217 200 -104 54 -170 65 -421
65 l-218 0 0 203 c0 191 -1 205 -24 253 -27 59 -90 116 -145 132 -21 7 -85 12
-143 12 -94 0 -110 -3 -159 -27 -66 -34 -113 -94 -128 -163 -6 -28 -11 -132
-11 -230 l0 -180 -294 0 -295 0 -3 213 c-3 240 -9 262 -88 329 -54 47 -98 58
-221 58 -83 0 -113 -5 -149 -21 -56 -25 -95 -62 -123 -114 -20 -37 -22 -58
-25 -252 l-4 -213 -293 0 -294 0 -3 213 c-3 195 -5 215 -25 252 -28 52 -68 89
-123 114 -37 17 -66 21 -155 21 -89 0 -118 -4 -155 -21 -55 -25 -95 -62 -123
-114 -20 -37 -22 -57 -25 -252 l-3 -213 -295 0 -294 0 0 188 c0 214 -11 269
-63 329 -17 20 -54 47 -82 59 -43 20 -66 24 -160 24 -89 0 -119 -4 -155 -21
-55 -25 -95 -62 -123 -114 -20 -37 -22 -57 -25 -252 l-3 -213 -295 0 -294 0 0
180 c0 98 -5 202 -11 230 -14 64 -61 127 -119 160 -40 22 -59 25 -165 28 -110
3 -124 1 -171 -21z m286 -96 c19 -10 44 -34 55 -52 19 -33 20 -52 20 -479 0
-427 -1 -446 -20 -479 -34 -58 -74 -72 -192 -69 -114 3 -144 17 -176 79 -16
31 -17 70 -15 481 3 434 4 447 24 475 35 48 78 63 179 63 69 0 99 -4 125 -19z
m1200 1 c23 -11 43 -33 58 -62 l23 -45 -3 -441 -3 -441 -28 -36 c-36 -47 -80
-60 -195 -56 -102 4 -134 20 -165 80 -16 31 -17 70 -15 481 3 434 4 447 24
475 35 48 78 63 179 63 66 0 99 -5 125 -18z m1199 0 c19 -9 44 -30 55 -45 21
-28 21 -39 21 -487 0 -448 0 -459 -21 -487 -38 -52 -77 -64 -191 -61 -114 3
-144 16 -176 79 -16 31 -17 70 -15 481 3 434 4 447 24 475 35 48 78 63 179 63
66 0 99 -5 124 -18z m1218 -8 c63 -46 63 -45 63 -524 0 -394 -2 -438 -18 -469
-31 -62 -61 -76 -175 -79 -126 -4 -161 10 -195 78 l-23 45 3 440 3 440 24 34
c36 51 71 62 188 59 84 -3 106 -6 130 -24z m1200 0 c63 -46 63 -45 63 -524 0
-394 -2 -438 -18 -469 -31 -62 -61 -76 -175 -79 -118 -3 -158 11 -192 69 -19
33 -20 52 -20 479 0 427 1 446 20 479 34 58 74 72 192 69 84 -2 106 -7 130
-24z m-5245 -791 c3 -242 5 -250 74 -317 52 -50 108 -66 233 -66 123 0 184 21
238 83 52 60 63 115 63 329 l0 188 295 0 295 0 0 -191 c0 -237 7 -267 74 -334
63 -62 102 -75 231 -75 117 0 162 12 215 58 79 67 85 89 88 330 l3 212 294 0
294 0 3 -212 c3 -241 9 -263 88 -330 53 -46 98 -58 215 -58 117 0 162 12 215
58 79 67 85 89 88 330 l3 212 294 0 293 0 4 -212 c3 -195 5 -216 25 -253 28
-52 67 -89 123 -114 36 -16 66 -21 149 -21 135 0 174 12 236 75 69 69 75 94
75 329 l0 196 295 0 295 0 0 -188 c0 -215 10 -265 64 -329 21 -23 57 -49 87
-63 47 -20 65 -22 173 -18 134 4 161 13 220 74 58 59 66 101 66 326 l0 198
218 0 c297 0 359 -17 478 -132 65 -62 114 -147 133 -228 7 -31 11 -1245 11
-3800 0 -4070 3 -3805 -51 -3913 -53 -103 -191 -209 -309 -236 -31 -7 -1055
-11 -3185 -11 -3402 0 -3191 -3 -3298 51 -103 53 -209 191 -236 309 -7 31 -11
1245 -11 3800 0 4070 -3 3805 51 3913 52 101 191 209 305 236 21 5 139 9 261
10 l222 1 3 -217z"/>
<path d="M7340 7522 c-30 -16 -176 -100 -325 -187 -148 -86 -594 -344 -990
-572 -748 -431 -1088 -628 -2275 -1313 -388 -223 -892 -513 -1120 -644 -228
-131 -428 -250 -444 -265 -83 -76 -85 -214 -3 -289 21 -20 1198 -512 1262
-528 21 -5 268 205 1890 1612 171 148 441 382 600 519 160 137 376 324 480
415 266 232 333 288 309 260 -24 -29 -371 -453 -875 -1071 -190 -233 -426
-523 -525 -644 -99 -121 -349 -427 -554 -679 -206 -253 -443 -543 -527 -645
l-152 -186 -1 -558 c0 -601 0 -598 53 -655 56 -60 159 -80 233 -45 27 14 129
131 413 477 207 253 381 466 386 473 8 10 166 -51 720 -278 789 -323 770 -317
858 -266 25 15 55 43 67 62 24 39 26 50 289 1630 39 231 88 528 110 660 22
132 72 429 110 660 39 231 88 528 110 660 22 132 67 407 101 610 33 204 70
419 81 480 26 136 22 200 -14 249 -45 58 -84 80 -152 84 -52 3 -68 0 -115 -26z"/>
</g>
</svg>
