<?xml version="1.0" standalone="no"?>
<!DOCTYPE svg PUBLIC "-//W3C//DTD SVG 20010904//EN"
 "http://www.w3.org/TR/2001/REC-SVG-20010904/DTD/svg10.dtd">
<svg version="1.0" xmlns="http://www.w3.org/2000/svg"
 width="1000.000000pt" height="1000.000000pt" viewBox="0 0 1000.000000 1000.000000"
 preserveAspectRatio="xMidYMid meet">
<metadata>
Created by potrace 1.11, written by Peter Selinger 2001-2013
</metadata>
<g transform="translate(0.000000,1000.000000) scale(0.100000,-0.100000)"
fill="#000000" stroke="none">
<path d="M2435 9626 c-60 -28 -87 -56 -114 -116 -19 -41 -21 -65 -21 -252 l0
-208 -232 0 c-172 0 -247 -4 -288 -15 -196 -52 -353 -209 -405 -405 -22 -83
-22 -7597 0 -7680 52 -196 209 -353 405 -405 83 -22 6367 -22 6450 0 196 52
353 209 405 405 22 83 22 7597 0 7680 -52 196 -209 353 -405 405 -41 11 -116
15 -287 15 l-233 0 0 208 c0 197 -1 210 -24 257 -28 60 -56 87 -116 114 -37
17 -66 21 -165 21 -134 0 -176 -13 -231 -68 -64 -63 -69 -85 -72 -319 l-3
-213 -294 0 -294 0 -3 218 -3 219 -30 49 c-19 30 -49 60 -79 79 -47 29 -55 30
-174 33 -144 4 -187 -7 -246 -64 -69 -67 -71 -75 -74 -316 l-3 -218 -294 0
-294 0 -3 218 -3 219 -30 49 c-19 30 -49 60 -79 79 -49 30 -51 30 -191 30
-140 0 -142 0 -191 -30 -30 -19 -60 -49 -79 -79 l-30 -49 -3 -219 -3 -218
-294 0 -294 0 -3 218 c-3 241 -5 249 -74 316 -59 57 -102 68 -246 64 -119 -3
-127 -4 -174 -33 -30 -19 -60 -49 -79 -79 l-30 -49 -3 -219 -3 -218 -294 0
-294 0 -3 213 c-3 234 -8 256 -72 319 -55 55 -97 68 -231 68 -105 0 -126 -3
-170 -24z m-133 -898 l3 -223 30 -45 c17 -24 51 -58 75 -75 44 -29 49 -30 178
-33 127 -4 135 -3 186 22 30 15 66 42 80 61 50 65 56 101 56 316 l0 199 295 0
295 0 0 -207 c0 -187 2 -212 21 -253 25 -54 42 -75 94 -109 39 -25 45 -26 186
-26 145 0 146 0 194 30 31 19 61 49 80 79 l30 49 3 219 3 218 294 0 294 0 3
-218 3 -219 30 -49 c19 -30 49 -60 79 -79 49 -30 51 -30 191 -30 140 0 142 0
191 30 30 19 60 49 79 79 l30 49 3 219 3 218 294 0 294 0 3 -218 3 -219 30
-49 c19 -30 49 -60 80 -79 48 -30 49 -30 194 -30 141 0 147 1 186 26 52 34 69
55 94 109 19 41 21 66 21 253 l0 207 295 0 295 0 0 -199 c0 -215 6 -251 56
-316 14 -19 50 -46 80 -61 51 -25 59 -26 186 -22 129 3 134 4 178 33 24 17 58
51 75 75 l30 45 3 224 3 223 232 -4 c216 -5 237 -7 298 -30 133 -49 235 -154
281 -285 l23 -68 0 -3775 0 -3775 -23 -68 c-47 -134 -156 -242 -290 -289 l-67
-23 -3160 0 -3160 0 -67 23 c-134 47 -243 155 -290 289 l-23 68 0 3775 0 3775
23 68 c57 164 202 284 372 307 30 4 141 8 247 9 l192 1 3 -222z"/>
<path d="M2025 7656 c-41 -18 -83 -69 -91 -110 -3 -19 -4 -83 -2 -142 3 -96 6
-113 27 -143 13 -18 42 -42 65 -52 40 -18 135 -19 2981 -19 2846 0 2941 1
2981 19 23 10 52 34 65 52 23 32 24 42 24 171 0 149 -5 165 -69 212 l-27 21
-2962 2 c-2447 2 -2967 0 -2992 -11z"/>
<path d="M3810 6845 c-8 -2 -49 -9 -90 -15 -165 -27 -350 -103 -510 -209 -98
-65 -274 -236 -344 -333 -96 -136 -174 -316 -211 -488 -25 -117 -31 -354 -11
-480 34 -213 125 -429 252 -595 86 -112 1910 -1939 1964 -1967 65 -33 205 -33
270 0 54 28 1878 1855 1964 1967 85 112 150 235 194 368 59 178 76 296 69 481
-8 222 -45 371 -137 551 -68 133 -128 213 -250 335 -190 190 -406 308 -671
366 -116 25 -355 30 -479 9 -301 -50 -562 -206 -760 -454 l-65 -82 -18 23
c-232 287 -508 461 -811 513 -76 13 -307 19 -356 10z"/>
<path d="M2025 6336 c-41 -18 -83 -69 -91 -110 -3 -19 -4 -83 -2 -142 3 -125
19 -159 88 -194 36 -18 60 -20 297 -20 l258 0 28 88 c35 108 91 229 151 321
l46 71 -373 0 c-287 -1 -379 -4 -402 -14z"/>
<path d="M7236 6280 c60 -93 116 -214 151 -322 l28 -88 268 0 c247 0 271 2
307 20 21 11 49 34 62 52 21 31 23 42 23 170 0 149 -5 165 -69 212 -26 20 -41
21 -422 24 l-394 3 46 -71z"/>
<path d="M2025 5014 c-79 -41 -95 -78 -95 -224 0 -129 11 -165 66 -206 l37
-29 444 -3 444 -3 -68 84 c-80 100 -162 233 -200 329 l-28 68 -285 0 c-239 0
-290 -3 -315 -16z"/>
<path d="M7337 4962 c-38 -95 -119 -229 -200 -329 l-68 -84 454 3 454 3 37 29
c55 41 66 77 66 206 0 129 -11 165 -66 206 l-37 29 -306 3 -306 2 -28 -68z"/>
<path d="M2018 3690 c-68 -36 -83 -70 -86 -200 -2 -65 1 -130 7 -151 14 -45
69 -96 113 -104 18 -3 516 -4 1107 -3 l1073 3 -232 238 -232 237 -856 0 c-828
-1 -858 -2 -894 -20z"/>
<path d="M5990 3473 l-232 -238 1083 -3 c596 -1 1099 0 1117 3 44 8 99 59 113
104 6 21 9 86 7 151 -3 131 -18 164 -88 200 -38 19 -62 20 -904 20 l-864 0
-232 -237z"/>
<path d="M2024 2371 c-23 -10 -52 -34 -65 -52 -23 -32 -24 -42 -24 -171 0
-149 5 -165 69 -212 l27 -21 2974 0 2974 0 27 21 c64 47 69 63 69 212 0 129
-1 139 -24 171 -13 18 -42 42 -65 52 -40 18 -135 19 -2981 19 -2846 0 -2941
-1 -2981 -19z"/>
</g>
</svg>
